<?xml version="1.0" encoding="iso-8859-1"?>
<!-- Generator: Adobe Illustrator 19.0.0, SVG Export Plug-In . SVG Version: 6.00 Build 0)  -->
<svg version="1.1" id="Capa_1" xmlns="http://www.w3.org/2000/svg" xmlns:xlink="http://www.w3.org/1999/xlink" x="0px" y="0px"
	 viewBox="0 0 512 512" style="enable-background:new 0 0 512 512;" xml:space="preserve">
<g>
	<g>
		<path d="M502,116.277h-30c-4.442,0-8.352,2.931-9.599,7.195L452.311,158h-44.083V90.885c0-5.996,4.878-10.874,10.874-10.874
			h22.178c10.312,0,18.701,8.389,18.701,18.701c0,5.523,4.477,10,10,10h21.417c5.523,0,10-4.477,10-10V73.163
			C501.396,32.821,468.575,0,428.233,0h-79.58c-4.436,0-8.342,2.922-9.594,7.179l-1.15,3.91h-2.652l-3.559-6.118
			C329.907,1.894,326.615,0,323.054,0h-33.919c-5.523,0-10,4.477-10,10v69.796c0,5.523,4.477,10,10,10h33.919
			c3.561,0,6.853-1.894,8.644-4.972l3.559-6.118h1.498l1.898,12.909V158H307v-4.159c0-1.74-0.473-3.517-1.352-5.02l-32-55.128
			c-1.789-3.083-5.084-4.98-8.648-4.98c-3.564,0-6.859,1.897-8.648,4.98l-32,55.128c-0.879,1.503-1.352,3.28-1.352,5.02V158h-22.6
			l24.391-146.356c0.483-2.899-0.333-5.865-2.233-8.108c-1.9-2.243-4.691-3.536-7.63-3.536H92c-5.523,0-10,4.477-10,10v148H59.69
			l-10.091-34.528c-1.247-4.264-5.156-7.195-9.599-7.195H10c-5.523,0-10,4.477-10,10V502c0,5.522,4.477,10,10,10h492
			c5.523,0,10-4.478,10-10V126.277C512,120.754,507.523,116.277,502,116.277z M446.466,178l-21.626,74h-4.871v-56.012
			c0-6.792-2.353-13.04-6.278-17.988H446.466z M329.505,58.707c-3.561,0-6.853,1.894-8.644,4.972l-3.559,6.118h-18.168V20h18.168
			l3.559,6.118c1.791,3.078,5.083,4.971,8.644,4.971h15.886c4.436,0,8.342-2.922,9.594-7.179l1.15-3.91h72.098
			c29.314,0,53.164,23.849,53.164,53.163v15.549h-2.726c-4.419-16.509-19.508-28.701-37.392-28.701h-22.178
			c-13.525,0-25.047,8.743-29.212,20.874H357.29l-2.005-13.633c-0.722-4.908-4.933-8.545-9.894-8.545H329.505z M390.969,186.988
			c4.962,0,9,4.038,9,9V252h-53.057v-56.012c0-4.962,4.038-9,9-9H390.969z M358.653,166.988v-66.103h29.575v66.103H358.653z
			 M307,178h26.19c-3.925,4.948-6.278,11.196-6.278,17.988V252H307V178z M265,118.632l14.633,25.209h-29.266L265,118.632z
			 M243,163.841h44V252h-44V163.841z M223,178v74h-38.266l12.333-74H223z M138.969,20h27.31l-3.815,24h-23.495V20z M102,20h16.969
			v34c0,5.523,4.477,10,10,10H171c4.917,0,9.104-3.574,9.876-8.43L186.53,20h16.593l-11.451,68.712H102V20z M102,108.712h86.338
			L164.458,252H102V108.712z M82,178v56.34L65.535,178H82z M492,372H343.739c-5.523,0-10,4.478-10,10c0,5.522,4.477,10,10,10H492v60
			H318.604c-5.523,0-10,4.478-10,10c0,5.522,4.477,10,10,10H492v20H20V136.277h12.504l10.131,34.665
			c0.005,0.016,0.009,0.031,0.014,0.047l27.418,93.817c1.247,4.264,5.156,7.194,9.599,7.194h352.669
			c4.442,0,8.353-2.931,9.599-7.195l37.562-128.528H492V372z"/>
	</g>
</g>
<g>
	<g>
		<path d="M57.07,454.93C55.21,453.07,52.63,452,50,452s-5.21,1.069-7.07,2.93C41.07,456.79,40,459.37,40,462s1.07,5.21,2.93,7.069
			C44.79,470.93,47.37,472,50,472s5.21-1.07,7.07-2.931C58.93,467.21,60,464.63,60,462S58.93,456.79,57.07,454.93z"/>
	</g>
</g>
<g>
	<g>
		<path d="M57.07,306.94c-1.86-1.859-4.44-2.93-7.07-2.93s-5.21,1.07-7.07,2.93S40,311.38,40,314.01c0,2.64,1.07,5.21,2.93,7.07
			c1.86,1.859,4.44,2.93,7.07,2.93s5.21-1.07,7.07-2.93s2.93-4.431,2.93-7.07C60,311.38,58.93,308.8,57.07,306.94z"/>
	</g>
</g>
<g>
	<g>
		<path d="M469.07,306.94c-1.86-1.859-4.44-2.93-7.07-2.93s-5.21,1.07-7.07,2.93c-1.86,1.86-2.93,4.44-2.93,7.07
			s1.07,5.21,2.93,7.07c1.86,1.859,4.44,2.93,7.07,2.93s5.21-1.07,7.07-2.93s2.93-4.431,2.93-7.07
			C472,311.38,470.93,308.8,469.07,306.94z"/>
	</g>
</g>
<g>
	<g>
		<path d="M285.07,454.93c-1.86-1.86-4.44-2.93-7.07-2.93s-5.21,1.069-7.07,2.93c-1.86,1.86-2.93,4.44-2.93,7.07
			s1.07,5.21,2.93,7.069c1.86,1.86,4.44,2.931,7.07,2.931s5.21-1.07,7.07-2.931c1.86-1.859,2.93-4.439,2.93-7.069
			S286.93,456.79,285.07,454.93z"/>
	</g>
</g>
<g>
	<g>
		<path d="M223,412l-142.509,0.001c-5.523,0-10,4.478-10,10c0,5.522,4.477,10,10,10L223,432c5.523,0,10-4.478,10-10
			C233,416.478,228.523,412,223,412z"/>
	</g>
</g>
<g>
	<g>
		<path d="M159.838,341.751H50c-5.523,0-10,4.478-10,10c0,5.522,4.477,10,10,10h109.838c5.523,0,10-4.478,10-10
			C169.838,346.229,165.361,341.751,159.838,341.751z"/>
	</g>
</g>
<g>
	<g>
		<path d="M301.105,372h-0.813c-5.523,0-10,4.478-10,10c0,5.522,4.477,10,10,10h0.813c5.523,0,10-4.478,10-10
			C311.105,376.478,306.628,372,301.105,372z"/>
	</g>
</g>
<g>
</g>
<g>
</g>
<g>
</g>
<g>
</g>
<g>
</g>
<g>
</g>
<g>
</g>
<g>
</g>
<g>
</g>
<g>
</g>
<g>
</g>
<g>
</g>
<g>
</g>
<g>
</g>
<g>
</g>
</svg>
