<svg xmlns="http://www.w3.org/2000/svg" width="200" height="40" viewBox="0 0 200 40"><path d="M41.729.18L0 13.702l9.833 3.329-3.923 1.332 6.093 2.367-1.345 8.037L35.093 39.82l8.942-9.269 3.318-19.82L41.729.18z" fill="#1f1f1f"/><path fill="#353535" d="M34.03 30.982l-13.674-6.185-9.697 3.971L35.093 39.82l-1.06-8.836z"/><linearGradient id="a" gradientUnits="userSpaceOnUse" x1="348.207" y1="199.526" x2="367.017" y2="199.526" gradientTransform="matrix(1.0853 .0475 -.1531 .9147 -322.029 -179.618)"><stop offset="0" stop-color="#5a5a5a"/><stop offset="1" stop-color="#565656"/></linearGradient><path fill="url(#a)" d="M37.612 24.769L41.729.18l-6.636 39.64 8.942-9.268 3.318-19.821z"/><linearGradient id="b" gradientUnits="userSpaceOnUse" x1="360.256" y1="199.526" x2="367.017" y2="199.526" gradientTransform="matrix(1.0853 .0475 -.1531 .9147 -322.029 -179.618)"><stop offset="0" stop-color="#5a5a5a"/><stop offset="1" stop-color="#565656"/></linearGradient><path fill="url(#b)" d="M37.612 24.769L41.729.18l-6.636 39.64 8.942-9.268 3.318-19.821z"/><linearGradient id="c" gradientUnits="userSpaceOnUse" x1="348.207" y1="191.298" x2="367.017" y2="191.298" gradientTransform="matrix(1.0853 .0475 -.1531 .9147 -322.029 -179.618)"><stop offset="0" stop-color="#5a5a5a"/><stop offset="1" stop-color="#565656"/></linearGradient><path fill="url(#c)" d="M47.353 10.731L41.729.18l-4.117 24.589z"/><linearGradient id="d" gradientUnits="userSpaceOnUse" x1="360.256" y1="191.298" x2="367.017" y2="191.298" gradientTransform="matrix(1.0853 .0475 -.1531 .9147 -322.029 -179.618)"><stop offset="0" stop-color="#5a5a5a"/><stop offset="1" stop-color="#565656"/></linearGradient><path fill="url(#d)" d="M47.353 10.731L41.729.18l-4.117 24.589z"/><path opacity=".3" fill="#fff" d="M47.353 10.731L41.729.18l-4.117 24.589z"/><path fill="#fff" d="M34.03 30.982l.003.002-.003-.002zM22.203 13.696l.01.006z"/><path fill="#353535" d="M10.659 28.768L35.093 39.82l-1.063-8.838-13.674-6.185z"/><path fill="#1f1f1f" d="M14.229 9.092l7.974 4.604 15.544-4.9L41.729.18z"/><path fill="#353535" d="M37.747 8.796l-1.059 6.325-7.227.699-.237 1.425 7.108-.027-.895 5.342-6.995-.645-.238 1.425 6.887 1.318-1.058 6.326 1.06 8.836L41.729.18z"/><path fill="none" d="M21.655 16.991h-.001l-.03.185z"/><path fill="#1f1f1f" d="M21.654 16.991l-4.204-1.82 4.753-1.475-7.978-4.606L0 13.702l9.833 3.329-3.923 1.332 6.093 2.367-1.344 8.038 9.695-3.97-.004-.001z"/><path fill="#fff" d="M36.709 15.119l1.059-6.325-20.292 6.375 4.205 1.82-1.298 7.806-.004.001 13.672 6.184.003.002 1.058-6.326-6.888-1.318.238-1.425.006.001 6.995.645.895-5.343-7.108.026h-.006l.238-1.423z"/><g fill="#fff"><path d="M128.188 19.818c-.322-.383-.778-.728-1.357-1.023-.567-.292-1.294-.54-2.163-.738-.416-.095-.82-.188-1.199-.278a3.653 3.653 0 01-.893-.325 1.298 1.298 0 01-.502-.458c-.1-.163-.122-.382-.071-.669l.044-.247c.027-.154.097-.308.21-.468.117-.165.287-.325.504-.477a3.01 3.01 0 01.824-.38c.329-.1.715-.15 1.147-.15.564 0 1.095.057 1.575.169.465.108.958.348 1.467.711l.249.179 2.039-2.604-.238-.171a6.242 6.242 0 00-2.197-1.025 10.472 10.472 0 00-2.404-.268c-1.043 0-1.961.144-2.729.427-.771.284-1.428.653-1.949 1.097a5.204 5.204 0 00-1.785 3.002l-.048.27c-.164.926-.12 1.682.127 2.249a3.066 3.066 0 001.104 1.34 5.259 5.259 0 001.66.72c.599.151 1.205.298 1.8.436.78.185 1.361.416 1.726.688.313.234.423.589.335 1.084l-.04.226c-.072.409-.3.742-.697 1.018-.417.289-1.07.437-1.943.437-.851 0-1.599-.139-2.226-.411-.634-.275-1.139-.598-1.5-.96l-.247-.247-2.102 2.68.188.179c.261.245.58.483.949.705a6.55 6.55 0 001.225.571c.44.156.924.282 1.439.374a9.14 9.14 0 001.613.14c.737 0 1.47-.076 2.178-.225a6.579 6.579 0 002.005-.771 5.12 5.12 0 001.576-1.463c.428-.603.723-1.354.877-2.232l.048-.269a4.25 4.25 0 00.012-1.528 2.81 2.81 0 00-.631-1.315zm14.487-6.7c-.373-.408-.889-.731-1.53-.958-.633-.224-1.423-.338-2.351-.338h-5.952l-2.749 15.567h3.3l1.013-5.73h2.652c.904 0 1.726-.129 2.439-.384a6.35 6.35 0 001.886-1.04c.539-.439.978-.96 1.304-1.548a5.853 5.853 0 00.658-1.843l.076-.434a4.863 4.863 0 00-.001-1.813 3.093 3.093 0 00-.745-1.479zm-7.039 1.571h2.528c.35 0 .671.028.957.086.261.054.479.148.645.278a.97.97 0 01.33.504c.064.217.064.511 0 .874l-.065.372c-.134.76-.419 1.26-.869 1.529-.492.293-1.146.441-1.946.441h-2.301l.721-4.084zm36.55 9.004a404.52 404.52 0 00-.807-2.95 5.189 5.189 0 001.841-1.442 5.073 5.073 0 001.032-2.291l.135-.766c.112-.634.101-1.23-.034-1.771a3.074 3.074 0 00-.766-1.41c-.369-.386-.86-.692-1.459-.911-.593-.218-1.302-.329-2.106-.329h-5.973L161.3 27.39h3.3l1.055-5.979h2.5l1.447 5.979h3.599l-.13-.461c-.301-1.08-.599-2.169-.885-3.236zm-5.344-9.004h2.344c.819 0 1.37.153 1.639.458.268.305.355.69.27 1.18l-.11.621a1.761 1.761 0 01-.7 1.142c-.397.303-1.073.457-2.007.457h-2.116l.68-3.858zm8.882.019h4.385L177.87 27.39h3.3l2.24-12.682h4.364l.51-2.886h-12.05zm23.035 6.421a2.84 2.84 0 00-.634-1.311c-.322-.383-.778-.728-1.356-1.023-.567-.292-1.295-.54-2.163-.738a154.8 154.8 0 01-1.199-.278 3.668 3.668 0 01-.893-.325 1.305 1.305 0 01-.502-.458c-.099-.163-.12-.382-.07-.669l.044-.247c.026-.154.096-.308.21-.468.117-.165.287-.325.504-.477.224-.153.502-.282.824-.38.329-.1.715-.15 1.149-.15.564 0 1.095.057 1.573.169.466.108.959.348 1.468.711l.249.179L200 13.059l-.239-.171a6.23 6.23 0 00-2.196-1.025 10.472 10.472 0 00-2.404-.268c-1.044 0-1.96.144-2.729.427-.772.284-1.428.653-1.949 1.097a5.237 5.237 0 00-1.226 1.473 5.099 5.099 0 00-.559 1.529l-.048.27c-.163.926-.12 1.682.127 2.249a3.073 3.073 0 001.104 1.34 5.259 5.259 0 001.66.72c.599.151 1.205.298 1.8.436.78.185 1.361.416 1.726.688.313.234.423.589.336 1.084l-.041.226c-.072.409-.3.742-.696 1.018-.418.289-1.072.437-1.944.437-.851 0-1.599-.139-2.227-.411-.633-.275-1.137-.598-1.5-.96l-.247-.247-2.101 2.68.189.179c.261.245.579.483.948.705a6.62 6.62 0 001.226.571c.439.156.924.282 1.439.374a9.15 9.15 0 001.613.14c.737 0 1.47-.076 2.178-.225a6.589 6.589 0 002.005-.771 5.135 5.135 0 001.577-1.463c.426-.603.722-1.354.876-2.232l.047-.269a4.269 4.269 0 00.014-1.531zm-45.464-5.967c2.732 0 4.561 2.221 4.077 4.951-.481 2.73-3.095 4.951-5.825 4.951s-4.559-2.221-4.077-4.951c.482-2.73 3.096-4.951 5.825-4.951m.591-3.34c-4.58 0-8.947 3.712-9.755 8.291-.81 4.579 2.248 8.291 6.826 8.291 4.579 0 8.947-3.712 9.755-8.291.809-4.579-2.248-8.291-6.826-8.291zm-37.536 8.457c.156-.882.16-1.672.012-2.348-.149-.681-.429-1.26-.83-1.72a3.656 3.656 0 00-1.553-1.032c-.617-.222-1.318-.334-2.083-.334-.776 0-1.531.112-2.241.332a6.079 6.079 0 00-1.982 1.053 6.34 6.34 0 00-1.528 1.805c-.415.72-.714 1.58-.888 2.562l-.212 1.205c-.191 1.083-.192 2.004-.003 2.738.191.74.52 1.343.978 1.788a3.9 3.9 0 001.653.949c.627.184 1.3.276 2.002.276 1.124 0 2.114-.118 2.943-.352a9.195 9.195 0 002.243-.95l.271-.164-.968-2.453-.303.156c-.624.324-1.21.56-1.742.7-.531.14-1.135.21-1.794.21-.842 0-1.45-.208-1.809-.621-.31-.354-.428-.878-.356-1.561h7.794l.396-2.239zm-4.995-2.603c.423 0 .773.057 1.04.169.262.11.47.257.618.437.146.177.233.379.27.615.036.249-.052.982-.052.982h-4.614l.022-.129a2.483 2.483 0 01.839-1.474c.451-.398 1.082-.6 1.877-.6zm-32.344.69l-3.3 3.267h4.356l-.264 1.498c-.172.977-1.103 1.767-2.08 1.769h-3.678l.192-1.089 1.226-6.939v-.005c.173-.975 1.104-1.766 2.079-1.767h6.671l2.483-3.267H76.353c-2.68 0-5.244 2.162-5.752 4.832H70.6l-1.55 8.779c-.266 1.504.738 2.723 2.242 2.723h7.759v-.004c2.607-.07 5.072-2.166 5.602-4.761h.004l.889-5.036h-6.535zm-13.333 0h-7.631s.284-1.585.295-1.628c.229-.916 1.119-1.639 2.052-1.639h7.215l1.938-3.267H59.474l-.001.008c-2.601.142-5.031 2.281-5.492 4.892l-.384 2.179c-.265 1.503.738 2.722 2.242 2.722h7.623s-.283 1.586-.294 1.629c-.229.915-1.118 1.637-2.05 1.638h-6.944l-2.209 3.268h10.073l.002-.009c2.601-.141 5.03-2.281 5.491-4.892l.384-2.178v-.001c.262-1.5-.738-2.718-2.237-2.722zm27.552-6.26l-6.49 12.049-2.013 3.74h4.627l5.514-10.489 2.972-5.3z"/><path d="M97.84 12.106l-2.972 5.3 1.336 6.645h-3.159l-1.907 3.844h9.879z"/></g></svg>