<svg xmlns="http://www.w3.org/2000/svg" width="220" height="45" viewBox="0 0 220 45"><path d="M45.902.698L0 15.573l10.816 3.662L6.501 20.7l6.703 2.605-1.48 8.839 26.878 12.158 9.836-10.195 3.649-21.802L45.902.698z" fill="#a21f24"/><path fill="#b71c25" d="M37.433 34.582l-15.041-6.805-10.668 4.367 26.878 12.158-1.166-9.719z"/><linearGradient id="a" gradientUnits="userSpaceOnUse" x1="350.899" y1="202.056" x2="371.589" y2="202.056" gradientTransform="matrix(1.0853 .0475 -.1531 .9147 -322.029 -179.618)"><stop offset="0" stop-color="#e72a29"/><stop offset="1" stop-color="#d83331"/></linearGradient><path fill="url(#a)" d="M41.374 27.746L45.902.698l-7.3 43.604 9.836-10.195 3.65-21.802z"/><linearGradient id="b" gradientUnits="userSpaceOnUse" x1="364.153" y1="202.056" x2="371.589" y2="202.056" gradientTransform="matrix(1.0853 .0475 -.1531 .9147 -322.029 -179.618)"><stop offset="0" stop-color="#e72a29"/><stop offset="1" stop-color="#d83331"/></linearGradient><path fill="url(#b)" d="M41.374 27.746L45.902.698l-7.3 43.604 9.836-10.195 3.65-21.802z"/><linearGradient id="c" gradientUnits="userSpaceOnUse" x1="350.9" y1="193.006" x2="371.589" y2="193.006" gradientTransform="matrix(1.0853 .0475 -.1531 .9147 -322.029 -179.618)"><stop offset="0" stop-color="#e72a29"/><stop offset="1" stop-color="#d83331"/></linearGradient><path fill="url(#c)" d="M52.088 12.305L45.902.698l-4.528 27.048z"/><linearGradient id="d" gradientUnits="userSpaceOnUse" x1="364.153" y1="193.006" x2="371.589" y2="193.006" gradientTransform="matrix(1.0853 .0475 -.1531 .9147 -322.029 -179.618)"><stop offset="0" stop-color="#e72a29"/><stop offset="1" stop-color="#d83331"/></linearGradient><path fill="url(#d)" d="M52.088 12.305L45.902.698l-4.528 27.048z"/><path opacity=".3" fill="#fff" d="M52.088 12.305L45.902.698l-4.528 27.048z"/><path fill="#fff" d="M37.433 34.582l.003.001-.003-.001zM24.422 15.566l.012.007z"/><path fill="#b71c25" d="M11.724 32.144l26.878 12.158-1.169-9.72-15.041-6.805z"/><path fill="#a21f24" d="M15.651 10.502l8.771 5.064 17.1-5.391 4.38-9.477z"/><path fill="#b71c25" d="M41.522 10.175l-1.165 6.958-7.949.77-.262 1.567 7.819-.03-.984 5.877-7.695-.709-.262 1.566 7.576 1.451-1.164 6.958 1.166 9.719 7.3-43.604z"/><path fill="none" d="M23.82 19.191l-.034.203z"/><path fill="#a21f24" d="M23.82 19.191l-4.625-2.003 5.227-1.622-8.774-5.067L0 15.573l10.816 3.662L6.501 20.7l6.703 2.605-1.48 8.839 10.665-4.365-.004-.002z"/><path fill="#fff" d="M40.38 17.131l1.165-6.958-22.321 7.012 4.625 2.004-1.428 8.586-.004.001 15.039 6.803.003.003 1.165-6.96-7.578-1.45.263-1.567.006.001 7.695.709.984-5.877-7.819.029h-.006l.262-1.566zM141.007 22.3c-.355-.421-.856-.8-1.492-1.126-.624-.321-1.424-.594-2.38-.811-.458-.104-.902-.208-1.318-.307a3.973 3.973 0 01-.983-.358 1.444 1.444 0 01-.552-.504c-.108-.179-.134-.419-.078-.735l.048-.273a1.28 1.28 0 01.231-.514c.129-.182.316-.358.555-.524a3.28 3.28 0 01.906-.418 4.396 4.396 0 011.262-.166c.622 0 1.205.063 1.733.185.511.119 1.054.383 1.613.783l.274.197 2.242-2.866-.262-.188c-.768-.55-1.582-.93-2.417-1.128a11.55 11.55 0 00-2.645-.293c-1.147 0-2.157.158-3.001.469-.849.313-1.57.718-2.145 1.207a5.758 5.758 0 00-1.349 1.62c-.312.576-.519 1.142-.614 1.683l-.053.296c-.18 1.018-.132 1.851.14 2.474a3.372 3.372 0 001.215 1.474 5.774 5.774 0 001.827.792c.658.167 1.324.328 1.979.479.858.203 1.497.458 1.898.756.345.259.465.648.369 1.192l-.045.25c-.079.45-.329.816-.766 1.119-.459.318-1.179.48-2.139.48-.936 0-1.759-.153-2.448-.453-.697-.302-1.252-.657-1.65-1.055l-.271-.273-2.312 2.947.208.197c.286.27.638.53 1.044.775.402.243.856.455 1.347.629.484.171 1.016.31 1.584.41a9.974 9.974 0 001.774.154c.811 0 1.616-.083 2.395-.247a7.195 7.195 0 002.206-.849 5.605 5.605 0 001.733-1.609c.471-.664.795-1.49.965-2.455l.053-.296a4.716 4.716 0 00.014-1.682 3.113 3.113 0 00-.695-1.438zm15.936-7.37c-.411-.449-.978-.803-1.684-1.054-.696-.246-1.565-.371-2.585-.371h-6.548l-3.023 17.123h3.629l1.114-6.303h2.918c.995 0 1.897-.142 2.682-.422a7.024 7.024 0 002.075-1.144 5.877 5.877 0 001.435-1.703 6.49 6.49 0 00.723-2.027l.084-.478c.125-.708.125-1.378-.001-1.994a3.403 3.403 0 00-.819-1.627zm-7.743 1.727h2.781a5.4 5.4 0 011.053.095c.287.059.526.162.709.306.175.14.294.321.362.554.071.238.071.562.001.961l-.072.41c-.147.835-.46 1.386-.956 1.682-.541.322-1.261.485-2.141.485h-2.531l.794-4.493zm40.204 9.907a414.155 414.155 0 00-.887-3.246c.823-.396 1.503-.928 2.024-1.587a5.587 5.587 0 001.137-2.521l.148-.842c.122-.697.11-1.353-.038-1.949a3.398 3.398 0 00-.843-1.551c-.406-.424-.946-.761-1.605-1.003-.651-.239-1.432-.361-2.317-.361h-6.57l-3.023 17.123h3.63l1.161-6.576h2.749l1.592 6.576h3.958l-.142-.507a386.19 386.19 0 01-.974-3.556zm-5.877-9.907h2.577c.901 0 1.508.17 1.804.504.293.335.39.759.296 1.298l-.121.683c-.091.519-.344.93-.77 1.256-.438.333-1.18.503-2.207.503h-2.328l.749-4.244zm9.769.022h4.825l-2.464 13.949h3.63l2.463-13.949h4.801l.561-3.174h-13.255zm25.339 7.063a3.127 3.127 0 00-.697-1.441c-.355-.421-.857-.8-1.491-1.126-.625-.321-1.425-.594-2.38-.811-.458-.104-.902-.208-1.319-.307a3.973 3.973 0 01-.983-.358 1.444 1.444 0 01-.552-.504c-.108-.179-.132-.419-.078-.735l.049-.273c.029-.169.105-.337.232-.514.129-.182.315-.358.555-.524.245-.169.551-.31.905-.418a4.41 4.41 0 011.264-.166c.621 0 1.205.063 1.731.185.512.119 1.055.383 1.613.783l.274.197L220 14.864l-.263-.188c-.768-.55-1.581-.93-2.417-1.128a11.544 11.544 0 00-2.645-.293c-1.148 0-2.156.158-3.001.469-.85.313-1.57.718-2.145 1.207a5.754 5.754 0 00-1.348 1.62 5.6 5.6 0 00-.614 1.683l-.053.296c-.18 1.018-.133 1.851.14 2.474.27.616.678 1.113 1.215 1.474.52.351 1.134.618 1.826.792.658.167 1.325.328 1.98.479.858.203 1.498.458 1.898.756.344.259.465.648.369 1.192l-.045.25c-.079.45-.33.816-.766 1.119-.46.318-1.18.48-2.139.48-.936 0-1.759-.153-2.449-.453-.696-.302-1.251-.657-1.65-1.055l-.272-.273-2.31 2.947.207.197c.286.27.637.53 1.043.775a7.44 7.44 0 001.348.629c.484.171 1.018.31 1.584.41a9.994 9.994 0 001.775.154c.811 0 1.616-.083 2.395-.247a7.22 7.22 0 002.205-.849 5.62 5.62 0 001.734-1.609c.469-.664.794-1.49.964-2.455l.052-.296a4.613 4.613 0 00.017-1.679zm-50.01-6.563c3.004 0 5.016 2.444 4.484 5.447-.529 3.003-3.404 5.446-6.407 5.446-3.004 0-5.016-2.443-4.485-5.446.531-3.003 3.406-5.447 6.408-5.447m.649-3.674c-5.037 0-9.841 4.083-10.73 9.12-.89 5.036 2.474 9.12 7.51 9.12 5.037 0 9.842-4.084 10.73-9.12.889-5.037-2.473-9.12-7.51-9.12zm-41.289 9.303c.172-.97.177-1.838.013-2.582-.164-.749-.471-1.386-.912-1.892-.442-.506-1.017-.888-1.708-1.136-.68-.244-1.451-.367-2.291-.367-.855 0-1.685.123-2.466.366a6.71 6.71 0 00-2.181 1.157 6.974 6.974 0 00-1.682 1.986c-.456.791-.785 1.738-.976 2.816l-.234 1.327c-.21 1.19-.211 2.204-.003 3.012.211.814.572 1.477 1.075 1.967.5.486 1.11.838 1.818 1.044.69.202 1.431.304 2.203.304 1.236 0 2.326-.13 3.237-.386a10.092 10.092 0 002.468-1.046l.299-.18-1.065-2.699-.332.173c-.688.356-1.332.614-1.917.768a7.787 7.787 0 01-1.974.233c-.926 0-1.596-.229-1.989-.684-.34-.39-.471-.967-.392-1.717h8.573l.436-2.464zm-5.494-2.864c.466 0 .851.063 1.144.186.288.122.517.283.68.48.161.195.257.417.297.676.04.275-.058 1.082-.058 1.082h-5.075l.025-.142c.112-.642.414-1.172.922-1.621.496-.439 1.19-.661 2.065-.661zm-35.579.76l-3.63 3.593h4.791l-.29 1.647c-.19 1.074-1.214 1.945-2.288 1.946h-4.046l.212-1.197 1.348-7.634v-.004c.19-1.073 1.214-1.943 2.287-1.944h7.341l2.731-3.593h-11.38c-2.947 0-5.768 2.378-6.327 5.315h-.002l-1.705 9.658c-.292 1.653.813 2.994 2.466 2.994h8.535l.001-.004c2.867-.078 5.579-2.383 6.162-5.236h.004l.978-5.54h-7.188zm-14.666 0h-8.393s.312-1.744.324-1.792c.252-1.007 1.231-1.802 2.257-1.802h7.936l2.131-3.593h-11.08l-.001.009c-2.861.156-5.534 2.509-6.041 5.381l-.423 2.396c-.292 1.654.812 2.994 2.466 2.994h8.385s-.312 1.744-.324 1.792c-.252 1.007-1.229 1.801-2.255 1.802h-7.639l-2.431 3.594h11.081l.002-.009c2.86-.155 5.533-2.51 6.041-5.381l.422-2.396v-.001c.291-1.652-.809-2.99-2.458-2.994zm30.308-6.888l-7.139 13.256-2.215 4.112h5.09l6.064-11.537 3.27-5.831z"/><path fill="#e72936" d="M107.624 13.816l-3.27 5.831 1.47 7.309h-3.475l-2.097 4.228h10.868z"/></svg>